<svg width="20" height="20" viewBox="0 0 20 20" fill="none" xmlns="http://www.w3.org/2000/svg">
<path fill-rule="evenodd" clip-rule="evenodd" d="M11.8241 18.0081C13.5901 15.8195 14.6475 13.0353 14.6475 10.004C14.6475 6.97284 13.5901 4.18858 11.8241 2L10.657 3.16709C12.13 5.05271 13.0077 7.42587 13.0077 10.004C13.0077 12.5822 12.13 14.9554 10.657 16.841L11.8241 18.0081Z" fill="#C4CBE0"/>
<path fill-rule="evenodd" clip-rule="evenodd" d="M8.99311 15.6978C10.2246 14.1296 10.959 12.1525 10.959 10.0039C10.959 7.85534 10.2246 5.87827 8.99314 4.31006L7.82343 5.47977C8.76317 6.74297 9.31926 8.30851 9.31926 10.0039C9.31926 11.6994 8.76316 13.2649 7.8234 14.5281L8.99311 15.6978Z" fill="#C4CBE0"/>
<path fill-rule="evenodd" clip-rule="evenodd" d="M6.17507 13.3819C6.88722 12.4433 7.30981 11.273 7.30981 10.004C7.30981 8.73505 6.88721 7.56475 6.17507 6.62622L5.00005 7.80124C5.42319 8.43072 5.67009 9.18855 5.67009 10.004C5.67009 10.8195 5.42319 11.5774 5.00006 12.2068L6.17507 13.3819Z" fill="#C4CBE0"/>
</svg>
