<svg width="32" height="28" viewBox="0 0 32 28" fill="none" xmlns="http://www.w3.org/2000/svg">
<defs>
<linearGradient id="paint0_linear" x1="-14.6387" y1="14.2511" x2="11.6602" y2="43.3881" gradientUnits="userSpaceOnUse">
<stop stop-color="#FEFEFE"/>
<stop offset="1" stop-color="#E0E4EE"/>
</linearGradient>
<linearGradient id="paint1_linear" x1="11" y1="11.5" x2="27.3852" y2="30.2812" gradientUnits="userSpaceOnUse">
<stop stop-color="#E1E5EE"/>
<stop offset="1" stop-color="#95A2BB"/>
</linearGradient>
</defs>
<rect width="31.952" height="28" rx="3.3" fill="url(#paint0_linear)"/>
<path fill-rule="evenodd" clip-rule="evenodd" d="M7.73569 0V6.58789H0V7.34465H9.24925C10.2279 7.34465 11.015 8.11552 11.015 9.05848V12.8649H0V13.6216H11.015V18.5291C11.015 19.472 10.2279 20.2429 9.24925 20.2429H0V20.9997H9.24925C10.6424 20.9997 11.7718 19.8935 11.7718 18.5291V17.4054H19.7597V18.5294C19.7597 19.8938 20.8891 20.9999 22.2822 20.9999H31.9519V20.2432H22.2822C21.3036 20.2432 20.5165 19.4723 20.5165 18.5294V13.6216H31.9519V12.8649H20.5165V9.05877C20.5165 8.11581 21.3036 7.34494 22.2822 7.34494H31.9519V6.58818H22.8708V0H22.1141V6.59358C20.7993 6.67834 19.7597 7.74965 19.7597 9.05877V9.08108H11.7718V9.05848C11.7718 7.69401 10.6424 6.58789 9.24925 6.58789H8.49245V0H7.73569ZM19.7597 16.6487V9.83784H11.7718V16.6487H19.7597ZM7.73569 21V27.8108H8.49245V21H7.73569ZM22.1141 27.8108V21H22.8708V27.8108H22.1141Z" fill="url(#paint1_linear)"/>
</svg>
