<svg width="55" height="16" viewBox="0 0 55 16" fill="none" xmlns="http://www.w3.org/2000/svg">
<path d="M19.7593 15.7646L22.5127 0.269287H26.9059L24.1524 15.7646H19.7593Z" fill="white"/>
<path d="M40.1154 0.653061C39.2491 0.326531 37.8879 0 36.1863 0C31.8241 0 28.7613 2.10761 28.7613 5.10575C28.7303 7.3321 30.9579 8.57885 32.6285 9.32096C34.3301 10.0928 34.9179 10.5677 34.9179 11.2505C34.9179 12.2894 33.5566 12.7644 32.2882 12.7644C30.5247 12.7644 29.5966 12.5269 28.1425 11.9629L27.5238 11.6957L26.905 15.1688C27.926 15.6141 29.8441 15.9703 31.8241 16C36.4647 16 39.4657 13.9221 39.4966 10.7161C39.5276 8.96475 38.3519 7.59926 35.8151 6.50093C34.2682 5.7885 33.3401 5.31354 33.3401 4.57143C33.3401 3.91837 34.1444 3.23562 35.846 3.23562C37.3001 3.20594 38.321 3.50278 39.1254 3.82931L39.5276 4.00742L40.1154 0.653061Z" fill="white"/>
<path d="M51.4027 0.293213H47.9995C46.9476 0.293213 46.1433 0.560374 45.6792 1.56965L39.1514 15.7589H43.7611C43.7611 15.7589 44.5036 13.8591 44.6892 13.4435C45.1842 13.4435 49.6701 13.4435 50.3198 13.4435C50.4436 13.9778 50.8458 15.7589 50.8458 15.7589H54.9295L51.4027 0.293213ZM45.9886 10.2672C46.3598 9.3767 47.752 5.93329 47.752 5.93329C47.7211 5.96297 48.1233 5.04275 48.3398 4.44906L48.6492 5.78486C48.6492 5.78486 49.4845 9.49544 49.6702 10.2672H45.9886Z" fill="white"/>
<path d="M16.0749 0.269287L11.7437 10.837L11.2796 8.69971C10.5062 6.23589 8.0002 3.53459 5.21582 2.19879L9.1449 15.7646H13.8165L20.7465 0.269287H16.0749Z" fill="white"/>
<path d="M7.75107 0.269287H0.666367L0.604492 0.595818C6.14232 1.87226 9.79295 4.98914 11.3089 8.69972L9.76202 1.57541C9.48358 0.595818 8.71014 0.298972 7.75107 0.269287Z" fill="white"/>
</svg>
